<?xml version="1.0" encoding="UTF-8" standalone="no"?>
<!DOCTYPE svg PUBLIC "-//W3C//DTD SVG 1.1//EN" "http://www.w3.org/Graphics/SVG/1.1/DTD/svg11.dtd">
<svg xmlns="http://www.w3.org/2000/svg" version="1.1" viewBox="0.00 0.00 1448.00 1448.00">
<path fill="#016cd6" d="
  M 1266.33 282.81
  C 1303.76 282.39 1332.52 310.55 1332.61 348.06
  Q 1332.82 433.15 1332.74 464.75
  C 1332.66 495.61 1310.98 522.02 1280.67 527.80
  Q 1274.24 529.02 1260.76 529.02
  Q 1156.63 528.98 1052.50 529.01
  Q 1038.88 529.01 1032.58 527.78
  C 1007.69 522.93 988.19 503.30 982.62 478.59
  Q 981.32 472.84 981.30 463.42
  Q 981.20 407.72 981.25 352.02
  Q 981.26 340.05 982.64 333.58
  C 989.10 303.14 1015.84 282.51 1047.14 282.77
  Q 1047.74 282.78 1047.74 282.18
  C 1047.78 270.26 1047.28 256.46 1048.30 246.30
  C 1050.15 227.99 1056.45 210.43 1067.36 195.51
  C 1091.97 161.85 1128.90 148.83 1170.31 152.65
  C 1221.05 157.34 1260.46 196.07 1265.25 246.80
  C 1266.20 256.87 1265.72 270.48 1265.76 282.25
  Q 1265.76 282.81 1266.33 282.81
  Z
  M 1091.72 282.39
  L 1224.08 282.63
  A 0.41 0.41 0.0 0 0 1224.49 282.22
  L 1224.55 250.84
  A 59.83 59.82 -89.9 0 0 1164.83 190.90
  L 1151.29 190.88
  A 59.83 59.82 -89.9 0 0 1091.37 250.60
  L 1091.31 281.98
  A 0.41 0.41 0.0 0 0 1091.72 282.39
  Z
  M 1180.23 378.86
  A 19.85 19.85 0.0 0 0 1160.38 359.01
  L 1152.38 359.01
  A 19.85 19.85 0.0 0 0 1132.53 378.86
  L 1132.53 434.82
  A 19.85 19.85 0.0 0 0 1152.38 454.67
  L 1160.38 454.67
  A 19.85 19.85 0.0 0 0 1180.23 434.82
  L 1180.23 378.86
  Z"
/>
<path fill="#016cd6" d="
  M 294.25 677.75
  L 400.75 677.75
  A 0.75 0.75 0.0 0 1 401.50 678.50
  L 401.50 779.44
  Q 401.50 779.85 401.20 780.12
  C 361.59 817.04 302.41 826.41 250.00 817.24
  C 190.77 806.88 145.81 769.96 134.07 708.97
  Q 129.68 686.17 131.95 663.02
  C 140.28 577.97 210.06 527.68 292.94 528.17
  Q 293.75 528.18 293.75 528.98
  L 293.75 677.25
  Q 293.75 677.75 294.25 677.75
  Z"
/>
<path fill="#016cd6" d="
  M 687.66 664.19
  C 692.87 574.31 769.39 517.46 857.25 529.80
  C 938.36 541.20 987.83 612.28 979.07 692.01
  C 971.95 756.84 926.35 807.17 861.74 818.23
  Q 827.00 824.17 793.15 815.30
  C 723.48 797.03 683.59 734.48 687.66 664.19
  Z"
/>
<path fill="#016cd6" d="
  M 667.44 815.81
  Q 553.39 815.72 439.26 815.75
  Q 438.75 815.75 438.75 815.24
  L 438.75 533.26
  Q 438.75 532.76 439.25 532.76
  Q 495.79 532.70 552.24 532.82
  C 554.17 532.82 556.13 533.30 557.91 533.30
  Q 582.08 533.38 605.48 539.29
  C 651.00 550.80 667.75 586.09 663.02 630.69
  C 658.93 669.17 633.64 691.41 597.45 700.88
  A 1.01 1.01 0.0 0 0 596.85 702.40
  L 668.14 815.19
  Q 668.44 815.67 667.94 815.94
  Q 667.65 816.09 667.44 815.81
  Z"
/>
<path fill="#016cd6" d="
  M 1157.30 709.93
  Q 1156.22 708.24 1155.14 709.93
  L 1080.55 826.70
  Q 1079.78 827.92 1079.33 826.55
  L 983.06 533.28
  Q 982.89 532.75 983.45 532.75
  L 1329.30 532.75
  A 0.26 0.25 -81.4 0 1 1329.54 533.08
  L 1232.98 827.00
  Q 1232.69 827.90 1232.18 827.11
  L 1157.30 709.93
  Z"
/>
<path fill="#b72c2c" d="
  M 716.54 1142.57
  C 645.01 1134.84 593.91 1080.92 588.52 1009.50
  C 582.47 929.39 634.12 862.09 714.72 852.43
  C 774.26 845.29 833.27 870.29 862.67 924.07
  C 884.28 963.61 886.24 1013.97 869.40 1055.99
  C 844.55 1117.99 782.29 1149.67 716.54 1142.57
  Z"
/>
<path fill="#b72c2c" d="
  M 84.97 1036.91
  C 127.79 1028.53 143.83 979.31 158.20 944.73
  C 168.49 919.97 183.21 894.60 205.22 878.41
  C 223.59 864.90 245.61 858.00 268.50 856.54
  Q 281.95 855.67 295.51 855.73
  Q 297.00 855.73 297.00 857.22
  L 297.00 954.27
  A 0.45 0.45 0.0 0 1 296.55 954.72
  C 263.50 954.74 251.43 990.57 241.85 1016.63
  C 233.39 1039.63 225.01 1060.32 210.78 1079.76
  C 183.08 1117.61 143.88 1134.65 97.75 1138.23
  Q 84.31 1139.28 54.31 1138.57
  Q 53.99 1138.57 53.99 1138.25
  L 54.00 1040.27
  Q 54.00 1039.81 54.46 1039.82
  Q 69.91 1039.86 84.97 1036.91
  Z"
/>
<path fill="#b72c2c" d="
  M 321.50 954.36
  L 321.50 856.39
  A 0.64 0.64 0.0 0 1 322.14 855.75
  L 568.61 855.75
  A 0.64 0.64 0.0 0 1 569.25 856.39
  L 569.25 954.36
  A 0.64 0.64 0.0 0 1 568.61 955.00
  L 499.89 955.00
  A 0.64 0.64 0.0 0 0 499.25 955.64
  L 499.26 1138.11
  A 0.64 0.64 0.0 0 1 498.62 1138.75
  L 399.14 1138.75
  A 0.64 0.64 0.0 0 1 398.50 1138.11
  L 398.50 955.64
  A 0.64 0.64 0.0 0 0 397.86 955.00
  L 322.14 955.00
  A 0.64 0.64 0.0 0 1 321.50 954.36
  Z"
/>
<path fill="#b72c2c" d="
  M 1073.79 1023.92
  A 0.92 0.92 0.0 0 0 1073.23 1025.30
  L 1144.72 1138.30
  A 0.29 0.29 0.0 0 1 1144.47 1138.75
  L 915.75 1138.75
  A 0.50 0.50 0.0 0 1 915.25 1138.25
  L 915.25 856.48
  A 0.68 0.68 0.0 0 1 915.92 855.80
  Q 972.73 855.57 1029.58 855.97
  C 1030.45 855.98 1031.21 856.37 1032.24 856.35
  Q 1062.12 855.75 1090.38 865.22
  Q 1130.99 878.83 1138.82 920.47
  Q 1142.49 939.99 1138.77 960.01
  C 1132.26 995.01 1107.32 1015.90 1073.79 1023.92
  Z"
/>
<path fill="#b72c2c" d="
  M 1277.25 1006.51
  L 1277.25 1039.24
  A 0.51 0.51 0.0 0 0 1277.76 1039.75
  L 1393.50 1039.75
  A 0.51 0.51 0.0 0 1 1394.01 1040.26
  L 1394.01 1138.24
  A 0.51 0.51 0.0 0 1 1393.50 1138.75
  L 1178.76 1138.75
  A 0.51 0.51 0.0 0 1 1178.25 1138.24
  L 1178.25 856.26
  A 0.51 0.51 0.0 0 1 1178.76 855.75
  L 1393.49 855.75
  A 0.51 0.51 0.0 0 1 1394.00 856.26
  L 1394.01 954.49
  A 0.51 0.51 0.0 0 1 1393.50 955.00
  L 1277.76 955.00
  A 0.51 0.51 0.0 0 0 1277.25 955.51
  L 1277.25 986.74
  A 0.51 0.51 0.0 0 0 1277.76 987.25
  L 1371.99 987.25
  A 0.51 0.51 0.0 0 1 1372.50 987.76
  L 1372.50 1005.49
  A 0.51 0.51 0.0 0 1 1371.99 1006.00
  L 1277.76 1006.00
  A 0.51 0.51 0.0 0 0 1277.25 1006.51
  Z"
/>
<path fill="#b72c2c" d="
  M 574.37 1285.19
  C 568.43 1282.09 557.24 1280.71 555.62 1272.68
  C 554.00 1264.61 559.29 1259.38 566.81 1257.88
  Q 576.13 1256.02 584.12 1262.41
  Q 584.63 1262.82 584.20 1263.30
  L 581.12 1266.80
  Q 580.74 1267.24 580.28 1266.88
  C 575.93 1263.55 561.88 1260.67 563.97 1271.02
  C 565.17 1276.95 582.99 1275.48 585.85 1287.26
  C 587.84 1295.43 581.36 1302.03 573.51 1303.31
  Q 563.18 1304.99 554.56 1298.62
  A 1.23 1.22 39.8 0 1 554.39 1296.80
  L 557.28 1293.69
  Q 557.67 1293.26 558.14 1293.61
  C 562.51 1296.90 572.82 1299.94 576.56 1294.19
  C 578.52 1291.18 577.84 1287.00 574.37 1285.19
  Z"
/>
<path fill="#b72c2c" d="
  M 628.65 1279.85
  L 638.05 1288.73
  A 0.60 0.60 0.0 0 0 639.03 1288.49
  L 642.16 1279.83
  A 0.80 0.80 0.0 0 1 643.14 1279.34
  L 648.24 1280.84
  Q 648.80 1281.01 648.61 1281.56
  Q 646.58 1287.55 643.12 1292.85
  Q 642.88 1293.22 643.21 1293.52
  L 649.77 1299.57
  Q 650.22 1299.99 649.69 1300.31
  L 644.70 1303.23
  Q 644.24 1303.50 643.84 1303.13
  L 638.90 1298.48
  Q 638.52 1298.12 638.13 1298.46
  C 629.35 1305.95 609.40 1306.36 609.45 1291.06
  C 609.47 1285.75 613.53 1281.77 617.79 1279.21
  A 0.62 0.62 0.0 0 0 617.88 1278.21
  C 614.91 1275.63 612.20 1272.47 611.94 1268.43
  C 611.04 1254.97 634.71 1254.05 636.63 1265.27
  C 637.91 1272.75 633.86 1275.16 628.75 1279.11
  Q 628.26 1279.49 628.65 1279.85
  Z
  M 629.18 1266.23
  C 628.41 1258.96 612.18 1264.72 623.55 1274.62
  Q 623.90 1274.93 624.32 1274.73
  Q 629.82 1272.24 629.18 1266.23
  Z
  M 622.37 1283.56
  C 609.97 1290.94 623.33 1303.77 633.81 1294.59
  Q 634.19 1294.26 633.82 1293.91
  L 623.10 1283.64
  Q 622.77 1283.32 622.37 1283.56
  Z"
/>
<path fill="#b72c2c" d="
  M 709.47 1274.76
  C 711.59 1259.29 727.64 1252.69 740.39 1261.68
  A 0.64 0.64 0.0 0 1 740.50 1262.63
  L 737.28 1266.24
  Q 736.90 1266.66 736.44 1266.33
  C 730.49 1262.01 722.14 1262.89 719.22 1270.47
  Q 715.65 1279.71 718.69 1289.33
  C 721.51 1298.24 730.22 1299.12 737.33 1294.07
  Q 737.80 1293.74 738.15 1294.20
  L 741.09 1298.05
  Q 741.46 1298.53 740.99 1298.91
  C 735.00 1303.81 727.15 1305.12 720.10 1301.76
  C 709.87 1296.89 708.05 1285.18 709.47 1274.76
  Z"
/>
<path fill="#b72c2c" d="
  M 776.50 1298.75
  C 765.74 1307.36 751.10 1304.25 746.08 1291.18
  Q 743.52 1284.51 744.67 1275.80
  C 746.73 1260.24 762.51 1251.77 775.79 1261.70
  Q 776.31 1262.09 775.89 1262.59
  L 772.85 1266.23
  Q 772.42 1266.74 771.87 1266.36
  C 762.99 1260.28 754.54 1264.94 753.48 1275.22
  C 752.63 1283.44 752.53 1298.37 765.40 1297.08
  Q 769.40 1296.68 772.62 1294.20
  A 0.72 0.72 0.0 0 1 773.62 1294.32
  L 776.58 1298.01
  Q 776.91 1298.42 776.50 1298.75
  Z"
/>
<path fill="#b72c2c" d="
  M 787.19 1299.56
  C 779.22 1293.66 778.60 1280.48 781.00 1271.75
  C 785.90 1253.97 810.61 1252.09 816.73 1270.00
  C 818.98 1276.58 819.02 1284.55 816.88 1290.86
  C 812.53 1303.66 797.75 1307.40 787.19 1299.56
  Z
  M 789.60 1272.08
  C 788.13 1278.30 787.07 1296.45 797.33 1297.22
  Q 806.82 1297.94 808.82 1288.74
  C 810.53 1280.84 811.10 1263.39 798.50 1263.97
  C 793.46 1264.21 790.75 1267.21 789.60 1272.08
  Z"
/>
<path fill="#b72c2c" d="
  M 965.31 1288.58
  C 963.95 1284.40 956.93 1282.78 952.76 1281.50
  C 944.27 1278.88 939.76 1268.56 946.82 1261.74
  C 953.71 1255.10 965.10 1256.79 972.14 1262.44
  Q 972.69 1262.89 972.21 1263.41
  L 969.22 1266.71
  Q 968.75 1267.23 968.18 1266.82
  Q 962.13 1262.39 955.65 1264.17
  C 951.82 1265.22 949.99 1270.07 953.30 1272.89
  C 956.24 1275.40 961.62 1276.54 965.29 1277.95
  C 974.11 1281.34 977.56 1292.35 970.56 1299.05
  C 963.00 1306.30 950.02 1304.27 942.30 1298.27
  Q 941.82 1297.90 942.20 1297.43
  L 945.19 1293.67
  Q 945.58 1293.18 946.09 1293.56
  C 950.67 1297.02 959.78 1299.56 964.20 1294.76
  Q 966.50 1292.26 965.31 1288.58
  Z"
/>
<path fill="#b72c2c" d="
  M 857.58 1295.18
  C 851.37 1308.66 826.65 1306.26 826.54 1288.84
  Q 826.44 1274.04 826.52 1259.14
  Q 826.52 1258.69 826.97 1258.70
  L 833.98 1258.77
  Q 834.50 1258.78 834.50 1259.30
  Q 834.49 1273.83 834.54 1288.31
  C 834.57 1295.24 837.71 1298.10 844.69 1297.12
  C 847.76 1296.68 850.77 1293.94 850.76 1291.00
  Q 850.73 1275.13 850.76 1259.26
  Q 850.76 1258.75 851.27 1258.75
  L 858.49 1258.75
  Q 859.00 1258.75 859.00 1259.26
  Q 859.00 1272.18 859.01 1285.07
  Q 859.02 1292.06 857.58 1295.18
  Z"
/>
<path fill="#b72c2c" d="
  M 894.31 1291.67
  L 894.26 1259.43
  Q 894.26 1258.80 894.89 1258.79
  L 901.58 1258.67
  A 0.41 0.41 0.0 0 1 902.00 1259.08
  L 902.00 1301.41
  A 1.34 1.34 0.0 0 1 900.65 1302.75
  L 891.87 1302.69
  Q 891.26 1302.69 891.02 1302.13
  L 877.08 1269.66
  A 0.30 0.30 0.0 0 0 876.50 1269.78
  L 876.50 1302.13
  Q 876.50 1302.76 875.87 1302.75
  L 869.90 1302.74
  Q 869.25 1302.74 869.25 1302.09
  L 869.25 1259.16
  A 0.40 0.40 0.0 0 1 869.65 1258.76
  L 879.25 1258.75
  Q 879.77 1258.75 879.97 1259.22
  L 894.02 1291.72
  A 0.15 0.15 0.0 0 0 894.31 1291.67
  Z"
/>
<path fill="#b72c2c" d="
  M 483.70 1259.45
  A 0.79 0.79 0.0 0 1 484.49 1258.66
  L 497.59 1258.64
  A 19.79 19.78 -0.1 0 1 517.42 1278.38
  L 517.42 1282.86
  A 19.79 19.78 -0.1 0 1 497.67 1302.68
  L 484.57 1302.70
  A 0.79 0.79 0.0 0 1 483.78 1301.91
  L 483.70 1259.45
  Z
  M 492.19 1265.44
  L 492.29 1295.66
  A 0.74 0.74 0.0 0 0 493.04 1296.40
  L 497.47 1296.38
  A 12.42 11.01 89.8 0 0 508.43 1283.92
  L 508.41 1277.06
  A 12.42 11.01 89.8 0 0 497.35 1264.68
  L 492.92 1264.70
  A 0.74 0.74 0.0 0 0 492.19 1265.44
  Z"
/>
<path fill="#b72c2c" d="
  M 534.64 1296.25
  L 551.09 1296.25
  A 0.67 0.67 0.0 0 1 551.76 1296.92
  L 551.74 1302.08
  A 0.67 0.67 0.0 0 1 551.07 1302.75
  L 526.67 1302.75
  A 0.67 0.67 0.0 0 1 526.00 1302.08
  L 526.00 1259.42
  A 0.67 0.67 0.0 0 1 526.67 1258.75
  L 533.34 1258.75
  A 0.67 0.67 0.0 0 1 534.01 1259.42
  L 533.97 1295.58
  A 0.67 0.67 0.0 0 0 534.64 1296.25
  Z"
/>
<path fill="#b72c2c" d="
  M 694.76 1292.48
  L 680.49 1292.48
  A 0.71 0.71 0.0 0 0 679.80 1293.02
  L 677.49 1302.19
  A 0.71 0.71 0.0 0 1 676.80 1302.73
  L 669.87 1302.73
  A 0.71 0.71 0.0 0 1 669.19 1301.81
  L 682.49 1259.25
  A 0.71 0.71 0.0 0 1 683.17 1258.75
  L 692.37 1258.75
  A 0.71 0.71 0.0 0 1 693.05 1259.25
  L 706.33 1301.86
  A 0.71 0.71 0.0 0 1 705.64 1302.78
  L 698.52 1302.64
  A 0.71 0.71 0.0 0 1 697.84 1302.11
  L 695.45 1293.01
  A 0.71 0.71 0.0 0 0 694.76 1292.48
  Z
  M 682.08 1285.52
  A 0.39 0.39 0.0 0 0 682.46 1286.01
  L 692.80 1285.99
  A 0.39 0.39 0.0 0 0 693.18 1285.50
  L 687.97 1266.42
  A 0.39 0.39 0.0 0 0 687.22 1266.42
  L 682.08 1285.52
  Z"
/>
<path fill="#b72c2c" d="
  M 919.80 1265.01
  L 908.84 1265.00
  A 0.45 0.45 0.0 0 1 908.39 1264.54
  L 908.55 1259.19
  A 0.45 0.45 0.0 0 1 909.00 1258.75
  L 940.55 1258.75
  A 0.45 0.45 0.0 0 1 941.00 1259.20
  L 941.00 1264.60
  A 0.45 0.45 0.0 0 1 940.55 1265.05
  L 928.95 1264.98
  A 0.45 0.45 0.0 0 0 928.50 1265.43
  L 928.50 1302.30
  A 0.45 0.45 0.0 0 1 928.05 1302.75
  L 920.70 1302.75
  A 0.45 0.45 0.0 0 1 920.25 1302.30
  L 920.25 1265.46
  A 0.45 0.45 0.0 0 0 919.80 1265.01
  Z"
/>
</svg>
