<?xml version="1.0" encoding="UTF-8" standalone="no"?>
<!DOCTYPE svg PUBLIC "-//W3C//DTD SVG 1.1//EN" "http://www.w3.org/Graphics/SVG/1.1/DTD/svg11.dtd">
<svg xmlns="http://www.w3.org/2000/svg" version="1.1" viewBox="0.00 0.00 1448.00 1448.00">
<path fill="#016cd6" d="
  M 1214.06 353.25
  C 1242.03 352.95 1266.08 370.82 1272.37 398.08
  Q 1273.73 403.95 1273.73 414.66
  Q 1273.76 464.25 1273.75 513.85
  Q 1273.75 524.28 1272.69 529.58
  C 1268.18 552.05 1250.37 569.25 1228.58 574.25
  Q 1223.09 575.51 1214.32 575.51
  Q 1116.44 575.49 1018.56 575.50
  Q 1007.07 575.51 1001.06 574.13
  C 979.67 569.26 962.94 552.27 957.86 530.91
  Q 956.56 525.45 956.54 516.35
  Q 956.46 465.17 956.50 413.99
  Q 956.51 403.95 957.83 398.13
  C 963.52 373.11 985.00 355.05 1010.57 353.57
  Q 1013.31 353.41 1016.02 353.11
  Q 1016.55 353.05 1016.54 352.51
  Q 1016.35 337.82 1016.68 323.20
  C 1016.75 320.30 1017.52 317.44 1017.96 314.54
  Q 1021.88 288.32 1039.03 268.26
  C 1060.82 242.78 1090.48 233.23 1123.23 235.42
  Q 1142.88 236.73 1159.34 244.16
  C 1188.97 257.55 1208.27 285.88 1212.60 317.73
  C 1214.01 328.08 1213.50 341.11 1213.50 352.70
  Q 1213.50 353.26 1214.06 353.25
  Z
  M 1056.50 353.11
  L 1175.26 352.91
  A 0.85 0.85 0.0 0 0 1176.11 352.05
  L 1176.06 324.20
  A 54.14 54.11 89.9 0 0 1121.86 270.16
  L 1109.62 270.18
  A 54.14 54.11 89.9 0 0 1055.60 324.42
  L 1055.65 352.27
  A 0.85 0.85 0.0 0 0 1056.50 353.11
  Z
  M 1136.0643 439.8775
  A 17.81 17.81 0.0 0 0 1118.2854 422.0365
  L 1110.9454 422.0237
  A 17.81 17.81 0.0 0 0 1093.1044 439.8025
  L 1093.0157 490.6025
  A 17.81 17.81 0.0 0 0 1110.7946 508.4435
  L 1118.1346 508.4563
  A 17.81 17.81 0.0 0 0 1135.9756 490.6775
  L 1136.0643 439.8775
  Z"
/>
<path fill="#016cd6" d="
  M 256.49 823.45
  C 205.49 798.94 182.92 748.40 189.63 693.54
  C 198.89 617.92 261.59 573.84 334.75 575.00
  Q 335.25 575.01 335.25 575.51
  L 335.25 709.25
  Q 335.25 710.00 336.00 710.00
  L 432.01 710.00
  Q 432.53 710.00 432.53 710.51
  L 432.75 801.86
  Q 432.75 802.49 432.28 802.90
  Q 407.68 824.51 374.49 833.24
  C 336.54 843.21 292.17 840.60 256.49 823.45
  Z"
/>
<path fill="#016cd6" d="
  M 946.54 756.30
  C 930.30 801.25 889.72 831.83 842.48 837.79
  C 767.07 847.31 699.53 799.80 691.77 722.49
  C 684.72 652.13 725.66 590.29 796.50 577.21
  C 828.43 571.32 863.26 575.98 892.01 592.48
  C 949.31 625.36 968.21 696.32 946.54 756.30
  Z"
/>
<path fill="#016cd6" d="
  M 609.90 730.79
  A 1.09 1.09 0.0 0 0 609.24 732.43
  L 673.56 834.19
  Q 673.91 834.75 673.25 834.75
  L 466.75 834.75
  A 0.50 0.50 0.0 0 1 466.25 834.25
  L 466.25 579.48
  A 0.48 0.48 0.0 0 1 466.73 579.00
  Q 511.31 579.00 555.96 579.00
  C 598.40 578.99 657.87 581.82 667.80 635.94
  C 676.33 682.45 657.03 718.84 609.90 730.79
  Z"
/>
<path fill="#016cd6" d="
  M 1115.10 738.50
  A 0.75 0.75 0.0 0 0 1113.84 738.50
  L 1046.18 844.44
  Q 1045.41 845.65 1044.97 844.29
  L 958.02 579.42
  Q 957.88 579.00 958.32 579.00
  L 1270.80 579.00
  A 0.25 0.25 0.0 0 1 1271.04 579.33
  L 1183.76 845.01
  A 0.31 0.31 0.0 0 1 1183.20 845.08
  L 1115.10 738.50
  Z"
/>
<path fill="#b72c2c" d="
  M 760.00 1128.43
  C 686.72 1141.54 617.10 1099.91 603.52 1024.74
  C 589.26 945.77 639.03 874.73 719.76 867.29
  C 760.73 863.51 801.69 876.59 830.19 906.30
  C 866.35 943.99 874.25 1002.49 855.99 1050.25
  C 840.33 1091.22 803.79 1120.59 760.00 1128.43
  Z"
/>
<path fill="#b72c2c" d="
  M 337.78 960.21
  C 319.86 960.30 309.28 971.11 301.40 986.08
  C 292.82 1002.42 287.31 1019.68 280.44 1036.72
  C 264.88 1075.35 237.94 1105.58 197.81 1118.55
  C 172.74 1126.66 145.49 1127.11 118.94 1126.42
  A 0.46 0.46 0.0 0 1 118.50 1125.96
  L 118.50 1037.48
  A 0.45 0.45 0.0 0 1 118.95 1037.03
  Q 131.66 1037.13 144.26 1035.04
  C 164.65 1031.67 178.16 1019.69 188.54 1002.59
  C 206.45 973.08 213.74 940.66 233.94 913.14
  C 259.75 877.99 295.40 869.91 337.07 870.77
  A 1.21 1.20 -89.5 0 1 338.25 871.98
  L 338.25 959.73
  A 0.48 0.48 0.0 0 1 337.78 960.21
  Z"
/>
<path fill="#b72c2c" d="
  M 360.25 959.83
  L 360.25 871.42
  A 0.67 0.67 0.0 0 1 360.92 870.75
  L 583.58 870.75
  A 0.67 0.67 0.0 0 1 584.25 871.42
  L 584.25 959.83
  A 0.67 0.67 0.0 0 1 583.58 960.50
  L 521.67 960.50
  A 0.67 0.67 0.0 0 0 521.00 961.17
  L 521.00 1125.83
  A 0.67 0.67 0.0 0 1 520.33 1126.50
  L 430.67 1126.50
  A 0.67 0.67 0.0 0 1 430.00 1125.83
  L 430.00 961.17
  A 0.67 0.67 0.0 0 0 429.33 960.50
  L 360.92 960.50
  A 0.67 0.67 0.0 0 1 360.25 959.83
  Z"
/>
<path fill="#b72c2c" d="
  M 1039.32 1023.70
  L 1103.79 1125.60
  Q 1104.36 1126.50 1103.29 1126.50
  L 897.25 1126.50
  A 0.50 0.50 0.0 0 1 896.75 1126.00
  L 896.75 871.49
  A 0.74 0.73 -0.0 0 1 897.49 870.76
  C 929.38 870.74 961.40 870.19 993.24 870.98
  Q 1009.93 871.40 1018.74 872.01
  C 1052.45 874.36 1087.71 886.16 1097.22 922.77
  Q 1102.57 943.39 1098.81 965.02
  C 1093.25 996.99 1069.65 1015.24 1039.67 1022.84
  Q 1038.90 1023.03 1039.32 1023.70
  Z"
/>
<path fill="#b72c2c" d="
  M 1224.47 1037.00
  L 1328.77 1037.00
  A 0.72 0.72 0.0 0 1 1329.49 1037.72
  L 1329.51 1125.78
  A 0.72 0.72 0.0 0 1 1328.79 1126.50
  L 1134.97 1126.50
  A 0.72 0.72 0.0 0 1 1134.25 1125.78
  L 1134.25 871.47
  A 0.72 0.72 0.0 0 1 1134.97 870.75
  L 1328.77 870.75
  A 0.72 0.72 0.0 0 1 1329.49 871.47
  L 1329.51 959.78
  A 0.72 0.72 0.0 0 1 1328.79 960.50
  L 1224.47 960.50
  A 0.72 0.72 0.0 0 0 1223.75 961.22
  L 1223.75 989.03
  A 0.72 0.72 0.0 0 0 1224.47 989.75
  L 1309.03 989.75
  A 0.72 0.72 0.0 0 1 1309.75 990.47
  L 1309.75 1005.78
  A 0.72 0.72 0.0 0 1 1309.03 1006.50
  L 1224.47 1006.50
  A 0.72 0.72 0.0 0 0 1223.75 1007.22
  L 1223.75 1036.28
  A 0.72 0.72 0.0 0 0 1224.47 1037.00
  Z"
/>
</svg>
